Coordinates
version=1
nRows=16
nColumns=36
inDegrees=yes

Units are S.I. units (second, meters, Newtons, ...)
If the header above contains a line with 'inDegrees', this indicates whether rotational values are in degrees (yes) or radians (no).

endheader
time	pelvis_tilt	pelvis_list	pelvis_rotation	pelvis_tx	pelvis_ty	pelvis_tz	hip_flexion_r	hip_adduction_r	hip_rotation_r	knee_angle_r	knee_angle_r_beta	ankle_angle_r	subtalar_angle_r	mtp_angle_r	hip_flexion_l	hip_adduction_l	hip_rotation_l	knee_angle_l	knee_angle_l_beta	ankle_angle_l	subtalar_angle_l	mtp_angle_l	lumbar_extension	lumbar_bending	lumbar_rotation	arm_flex_r	arm_add_r	arm_rot_r	elbow_flex_r	pro_sup_r	arm_flex_l	arm_add_l	arm_rot_l	elbow_flex_l	pro_sup_l
      1.99166670	     -5.88155971	      0.61753236	      0.82118937	     -0.90770514	      1.20758106	     -0.06110667	      8.55073030	     -1.08478965	      6.20899799	      9.44503102	      0.16484689	      7.05269793	    -12.58566072	     -7.49999987	      8.89112205	     -0.54098194	      6.64400755	      9.26602718	      0.16172268	      7.24190285	     -9.26757740	     -7.49999987	    -10.13370070	     -0.39413694	     -2.22715897	      8.07586122	    -10.36730589	      7.51387854	     29.58371903	     75.17721497	      4.14119679	    -12.37467038	      1.61353679	     41.71757729	     80.05197278
      1.99583330	     -6.51742761	      0.60456372	      0.74663345	     -0.90833396	      1.21076634	     -0.06123248	      9.54431059	     -1.03741030	      6.41609208	      9.97666581	      0.17412567	      6.99260100	    -13.07922034	     -7.49999987	      9.88232958	     -0.51969923	      6.70700405	      9.82777318	      0.17152700	      7.19947295	     -9.79538174	     -7.49999987	     -9.59969362	     -0.41812764	     -2.23316756	      8.01277303	    -10.55235502	      7.40654544	     29.41533023	     77.79288358	      3.87406017	    -12.43904637	      0.96442009	     41.67899713	     83.38606845
      2.00000000	     -6.93758894	      0.61384957	      0.71289666	     -0.90712744	      1.20750096	     -0.06175226	     10.28827620	     -1.02633175	      6.62763815	     10.53762452	      0.18391624	      7.18923065	    -13.24626512	     -7.49999987	     10.62903625	     -0.45349981	      6.79328502	     10.40808341	      0.18165532	      7.30328691	    -10.10798366	     -7.49999987	     -9.28846940	     -0.43771662	     -2.26831749	      7.83539571	    -10.67289404	      7.03750209	     29.40592208	     75.99645693	      3.65413092	    -12.56578691	      0.79459037	     41.58871762	     81.29819775
      2.00416670	     -7.34595809	      0.66457859	      0.69425696	     -0.90765480	      1.21009349	     -0.06170643	     11.00290369	     -1.04444432	      6.87823929	     11.08511952	      0.19347183	      7.30787251	    -13.45076900	     -7.49999987	     11.41022161	     -0.37228344	      6.83127162	     11.08540979	      0.19347690	      7.18487466	    -10.43689279	     -7.49999987	     -8.97946529	     -0.50636059	     -2.25032310	      7.68026416	    -10.80511601	      6.87853606	     29.18721072	     75.11612652	      3.51680430	    -12.68905504	      0.73905572	     41.38341009	     80.26833032
      2.00833330	     -8.00984304	      0.66522283	      0.56986238	     -0.90911389	      1.20642237	     -0.06057335	     12.12636714	     -0.97207743	      7.19592847	     11.76397195	      0.20532004	      7.47523466	    -13.70378241	     -7.49999987	     12.59035439	     -0.35402506	      6.90991686	     11.94751247	      0.20852343	      7.25830556	    -10.67619332	     -7.49999987	     -8.35891265	     -0.54735587	     -2.17736734	      7.54670867	    -11.01449268	      6.90337720	     29.00095686	     75.22137557	      3.32974907	    -12.95804935	      0.90994277	     41.09139975	     80.30002308
      2.01250000	     -8.47338778	      0.66914275	      0.56734261	     -0.90916843	      1.20523346	     -0.06173936	     12.95947004	     -0.95187904	      7.42003570	     12.38261811	      0.21611746	      7.74348530	    -13.77533870	     -7.49999987	     13.50148897	     -0.32187543	      6.99864887	     12.67226859	      0.22117281	      7.30298287	    -10.83301523	     -7.49999987	     -8.04240452	     -0.51603103	     -2.21694788	      7.45555780	    -11.16814063	      6.55947965	     28.88685878	     74.33290751	      3.16977178	    -13.03492442	      0.60007420	     40.88625072	     79.26142581
      2.01666670	     -9.26154259	      0.66845383	      0.47998876	     -0.91038884	      1.20254476	     -0.06140932	     14.27903796	     -0.89939024	      7.68498759	     13.17910013	      0.23001869	      8.06196831	    -13.95408248	     -7.49999987	     14.82925127	     -0.29562969	      7.05453772	     13.49724518	      0.23557137	      7.49266653	    -11.13041606	     -7.49999987	     -7.27354121	     -0.49858203	     -2.15553704	      7.28925886	    -11.41582141	      6.52586987	     28.71229330	     74.46209916	      2.97428699	    -13.22197341	      0.66008075	     40.65717301	     79.42442763
      2.02083330	     -9.87113086	      0.63867231	      0.41117100	     -0.91322567	      1.20173680	     -0.06137005	     15.48893737	     -0.82083392	      7.86052258	     14.03118663	      0.24489040	      8.32026041	    -14.03434223	     -7.49999987	     16.03415426	     -0.30361290	      6.93892378	     14.36145422	      0.25065466	      7.76569629	    -11.31796180	     -7.49999987	     -6.89714360	     -0.44946821	     -2.15281206	      7.31887155	    -11.54726619	      6.13073813	     28.63859879	     73.31139454	      2.90519176	    -13.31866779	      0.35034360	     40.54345964	     78.06225780
      2.02500000	    -10.42900199	      0.65883653	      0.33006440	     -0.91345700	      1.19969840	     -0.06117970	     16.61350443	     -0.81040666	      7.95073788	     14.89572451	      0.25997944	      8.61503647	    -14.13587249	     -7.49999987	     17.17599224	     -0.27877217	      6.87760527	     15.29813934	      0.26700290	      7.91564173	    -11.63327583	     -7.49999987	     -6.53811049	     -0.47937150	     -2.18180944	      7.30603854	    -11.72004699	      5.88599879	     28.56565171	     72.64647847	      2.76077149	    -13.52664481	      0.17483203	     40.49366299	     77.27448264
      2.02916670	    -11.20227124	      0.68449105	      0.22348442	     -0.91337687	      1.19817874	     -0.06216172	     17.95865765	     -0.82214983	      8.06272198	     15.77797950	      0.27537769	      8.77569392	    -14.33091542	     -7.49999987	     18.55623228	     -0.23103355	      6.79558162	     16.27619147	      0.28407313	      8.07165169	    -11.92683915	     -7.49999987	     -5.87412213	     -0.47951206	     -2.11746081	      7.16135710	    -11.90865871	      5.58290379	     28.41485618	     71.45451976	      2.54632774	    -13.62872340	      0.03359320	     40.39943292	     75.79861627
      2.03333330	    -11.84596891	      0.73552793	      0.14351833	     -0.91419632	      1.19763080	     -0.06317871	     19.10574206	     -0.88446696	      8.10383616	     16.52212884	      0.28836555	      8.91062170	    -14.37866455	     -7.49999987	     19.71123377	     -0.13962323	      6.76053530	     17.08203982	      0.29813784	      8.12079303	    -12.26605541	     -7.49999987	     -5.33959033	     -0.49606649	     -2.12631667	      7.03424638	    -12.18590848	      5.41681635	     28.33973668	     70.87643218	      2.34723052	    -13.77005606	     -0.03441331	     40.37069660	     75.08500011
      2.03750000	    -12.51162719	      0.74544221	      0.06425354	     -0.91570239	      1.20028823	     -0.06404101	     20.23380871	     -0.91378443	      8.06120698	     17.18349947	      0.29990864	      9.12515334	    -14.20674304	     -7.49999987	     20.88867021	     -0.05342468	      6.87761169	     17.87219974	      0.31192873	      7.90078311	    -12.88243677	     -7.49999987	     -4.87112586	     -0.39104368	     -2.13387234	      6.93858140	    -12.40123900	      4.16830114	     28.18509028	     75.93245067	      2.16685372	    -13.64564592	     -1.36113935	     40.16775991	     81.94267161
      2.04166670	    -13.10156692	      0.76831580	      0.04132064	     -0.91591053	      1.19494476	     -0.06412949	     21.24255801	     -0.94792379	      8.08160405	     17.80159629	      0.31069647	      9.12903674	    -14.32008563	     -7.49999987	     21.95575791	      0.04945708	      6.85591836	     18.65536659	      0.32559757	      7.95940307	    -13.26341465	     -7.49999987	     -4.48239644	     -0.34426290	     -2.13433416	      6.62597865	    -12.71389725	      3.62378480	     28.59651938	     75.64588047	      1.96267579	    -13.78843752	     -1.47828591	     40.34935848	     81.60381214
      2.04583330	    -13.51603056	      0.79049281	      0.01202640	     -0.91690297	      1.19317430	     -0.06488234	     22.19808802	     -0.99181224	      7.97266032	     18.68339082	      0.32608669	      9.56245858	    -14.08093506	     -7.49999987	     22.88537494	      0.13668352	      6.76399751	     19.54496969	      0.34112407	      8.34399243	    -13.34693549	     -7.49999987	     -4.29483178	     -0.28022820	     -2.16923105	      6.73081339	    -12.98493243	      3.30295732	     28.12849287	     74.61979030	      2.05651497	    -13.85759490	     -1.47308057	     39.89503357	     80.27359502
      2.05000000	    -14.44266747	      0.81478106	     -0.04509598	     -0.91775037	      1.18791767	     -0.06562346	     23.88088797	     -1.01007096	      8.06311203	     19.92600481	      0.34777439	      9.84711849	    -14.36548933	     -7.49999987	     24.50483009	      0.23980662	      6.79084182	     20.62980078	      0.36005795	      8.65581117	    -13.73182276	     -7.49999987	     -3.42790364	     -0.22373216	     -2.19723791	      6.47531732	    -13.32148296	      3.07422936	     28.14566951	     74.00738926	      1.79659437	    -14.07482294	     -1.06132789	     39.79140260	     79.26982286
      2.05416670	    -15.22876508	      0.89100243	     -0.17895450	     -0.91971406	      1.18569604	     -0.06346378	     25.41281615	     -1.00927809	      8.11804424	     21.05602449	      0.36749695	     10.21097493	    -14.35991882	     -7.49999987	     25.91469464	      0.28721021	      6.72452911	     21.58726144	      0.37676879	      9.01296446	    -13.74613585	     -7.49999987	     -2.88063014	     -0.29421780	     -2.12558603	      6.19057762	    -13.62503804	      2.70335005	     28.48020269	     72.53739571	      1.43835235	    -14.26051202	     -1.33339463	     40.26019008	     77.43800214
